:FULLY-SPECIFIED
:FORCE-ALL-JOINTS-BE-3DOF
:DEGREES
372
root 9.33584 17.0591 16.0852 6.1948 3.93935 -3.06921
lfemur -34.3688 5.54486 -17.6714
ltibia 54.8025 0 0
lfoot -14.0511 11.5201 0
ltoes -3.51725 0 0
rfemur -13.2188 6.05124 29.0219
rtibia 29.1255 0 0
rfoot -19.0249 3.09891 0
rtoes -14.0983 0 0
lowerback -5.78121 0.276808 0.102374
upperback -0.706932 0.28854 2.80761
thorax 2.50889 0.134215 2.85913
lowerneck -19.982 -6.22268 -12.484
upperneck 21.4649 -8.07263 12.5833
head 11.3411 -3.22381 5.44116
lclavicle -8.53652e-016 1.03368e-014 0
lhumerus -46.2922 -17.8848 97.7
lradius 28.1222 0 0
lwrist 11.8986 0 0
lhand -14.4916 -22.3728 0
lfingers 7.12502 0 0
lthumb 11.655 7.28167 0
rclavicle -8.53652e-016 1.03368e-014 0
rhumerus -33.3581 17.8835 -83.885
rradius 43.9497 0 0
rwrist -23.0411 0 0
rhand -31.2104 -23.8103 0
rfingers 7.12502 0 0
rthumb -4.48624 -53.7424 0
373
root 9.33553 17.0711 16.2112 6.20458 3.72204 -3.12444
lfemur -35.7151 5.4973 -17.8881
ltibia 55.1608 0 0
lfoot -14.928 11.8154 0
ltoes -3.24045 0 0
rfemur -12.5453 6.16655 29.1828
rtibia 28.751 0 0
rfoot -19.2392 3.15822 0
rtoes -14.1518 0 0
lowerback -5.76685 0.424179 0.180414
upperback -0.679561 0.480195 2.78835
thorax 2.51135 0.230361 2.81161
lowerneck -19.9861 -6.24637 -12.4559
upperneck 21.49 -8.1014 12.524
head 11.3516 -3.24089 5.4093
lclavicle -9.19379e-016 1.07344e-014 0
lhumerus -46.8679 -17.7878 97.599
lradius 28.256 0 0
lwrist 12.1942 0 0
lhand -14.627 -22.3701 0
lfingers 7.12502 0 0
lthumb 11.5245 7.29306 0
rclavicle -9.19379e-016 1.07344e-014 0
rhumerus -32.9454 18.3189 -83.9713
rradius 44.3713 0 0
rwrist -23.2521 0 0
rhand -31.2908 -23.7895 0
rfingers 7.12502 0 0
rthumb -4.56391 -53.7204 0
374
root 9.34668 17.0649 16.3475 6.21535 3.55011 -3.27158
lfemur -35.9535 5.20753 -17.5913
ltibia 54.0607 0 0
lfoot -14.965 11.8706 0
ltoes -3.53899 0 0
rfemur -11.574 6.15803 29.3148
rtibia 27.8235 0 0
rfoot -18.8691 3.2805 0
rtoes -14.0266 0 0
lowerback -5.84515 0.515804 0.282892
upperback -0.649115 0.58812 2.83132
thorax 2.58545 0.285046 2.81381
lowerneck -19.9645 -6.24261 -12.4862
upperneck 21.4812 -8.09263 12.5417
head 11.3451 -3.23814 5.42273
lclavicle -4.36844e-016 9.51604e-015 0
lhumerus -47.0807 -17.5131 97.5594
lradius 28.2188 0 0
lwrist 12.0665 0 0
lhand -14.4894 -22.4957 0
lfingers 7.12502 0 0
lthumb 11.6571 7.15855 0
rclavicle -4.36844e-016 9.51604e-015 0
rhumerus -32.754 18.214 -83.9991
rradius 44.2139 0 0
rwrist -23.0789 0 0
rhand -31.2576 -23.7008 0
rfingers 7.12502 0 0
rthumb -4.53181 -53.6323 0
375
root 9.35784 17.0588 16.4838 6.22613 3.37818 -3.41871
lfemur -36.1919 4.91776 -17.2946
ltibia 52.9606 0 0
lfoot -15.002 11.9259 0
ltoes -3.83752 0 0
rfemur -10.6027 6.14952 29.4468
rtibia 26.8961 0 0
rfoot -18.499 3.40279 0
rtoes -13.9015 0 0
lowerback -5.92346 0.607428 0.385369
upperback -0.618669 0.696044 2.87429
thorax 2.65956 0.339731 2.81602
lowerneck -19.9428 -6.23885 -12.5166
upperneck 21.4723 -8.08385 12.5594
head 11.3385 -3.23538 5.43616
lclavicle 4.56906e-017 8.29768e-015 0
lhumerus -47.2934 -17.2384 97.5197
lradius 28.1816 0 0
lwrist 11.9387 0 0
lhand -14.3518 -22.6214 0
lfingers 7.12502 0 0
lthumb 11.7897 7.02404 0
rclavicle 4.56906e-017 8.29768e-015 0
rhumerus -32.5625 18.1092 -84.0268
rradius 44.0565 0 0
rwrist -22.9058 0 0
rhand -31.2243 -23.6121 0
rfingers 7.12502 0 0
rthumb -4.49971 -53.5442 0
376
root 9.36899 17.0526 16.62 6.2369 3.20626 -3.56585
lfemur -36.4303 4.62799 -16.9978
ltibia 51.8605 0 0
lfoot -15.039 11.9811 0
ltoes -4.13606 0 0
rfemur -9.6314 6.141 29.5788
rtibia 25.9686 0 0
rfoot -18.1289 3.52507 0
rtoes -13.7763 0 0
lowerback -6.00176 0.699053 0.487847
upperback -0.588224 0.803969 2.91725
thorax 2.73366 0.394416 2.81822
lowerneck -19.9212 -6.23509 -12.5469
upperneck 21.4635 -8.07508 12.5771
head 11.332 -3.23263 5.44959
lclavicle 5.28225e-016 7.07933e-015 0
lhumerus -47.5062 -16.9637 97.4801
lradius 28.1444 0 0
lwrist 11.811 0 0
lhand -14.2142 -22.747 0
lfingers 7.12502 0 0
lthumb 11.9223 6.88953 0
rclavicle 5.28225e-016 7.07933e-015 0
rhumerus -32.3711 18.0043 -84.0546
rradius 43.8991 0 0
rwrist -22.7326 0 0
rhand -31.1911 -23.5234 0
rfingers 7.12502 0 0
rthumb -4.4676 -53.4561 0
377
root 9.38014 17.0464 16.7563 6.24768 3.03433 -3.71298
lfemur -36.6687 4.33822 -16.701
ltibia 50.7604 0 0
lfoot -15.076 12.0364 0
ltoes -4.4346 0 0
rfemur -8.6601 6.13249 29.7109
rtibia 25.0412 0 0
rfoot -17.7588 3.64735 0
rtoes -13.6512 0 0
lowerback -6.08006 0.790677 0.590324
upperback -0.557778 0.911894 2.96022
thorax 2.80776 0.449102 2.82042
lowerneck -19.8995 -6.23132 -12.5772
upperneck 21.4546 -8.06631 12.5949
head 11.3254 -3.22988 5.46302
lclavicle 1.01076e-015 5.86097e-015 0
lhumerus -47.7189 -16.6889 97.4405
lradius 28.1072 0 0
lwrist 11.6832 0 0
lhand -14.0767 -22.8727 0
lfingers 7.12502 0 0
lthumb 12.0549 6.75503 0
rclavicle 1.01076e-015 5.86097e-015 0
rhumerus -32.1797 17.8995 -84.0824
rradius 43.7418 0 0
rwrist -22.5594 0 0
rhand -31.1578 -23.4347 0
rfingers 7.12502 0 0
rthumb -4.4355 -53.3681 0
378
root 9.3913 17.0402 16.8926 6.25845 2.8624 -3.86012
lfemur -36.9071 4.04845 -16.4043
ltibia 49.6603 0 0
lfoot -15.113 12.0916 0
ltoes -4.73314 0 0
rfemur -7.6888 6.12397 29.8429
rtibia 24.1137 0 0
rfoot -17.3887 3.76964 0
rtoes -13.526 0 0
lowerback -6.15837 0.882302 0.692802
upperback -0.527332 1.01982 3.00319
thorax 2.88187 0.503787 2.82262
lowerneck -19.8779 -6.22756 -12.6075
upperneck 21.4458 -8.05753 12.6126
head 11.3189 -3.22713 5.47645
lclavicle 1.4933e-015 4.64261e-015 0
lhumerus -47.9317 -16.4142 97.4008
lradius 28.07 0 0
lwrist 11.5555 0 0
lhand -13.9391 -22.9983 0
lfingers 7.12502 0 0
lthumb 12.1875 6.62052 0
rclavicle 1.4933e-015 4.64261e-015 0
rhumerus -31.9883 17.7946 -84.1101
rradius 43.5844 0 0
rwrist -22.3862 0 0
rhand -31.1246 -23.346 0
rfingers 7.12502 0 0
rthumb -4.4034 -53.28 0
379
root 9.40245 17.0341 17.0289 6.26923 2.69047 -4.00726
lfemur -37.1454 3.75868 -16.1075
ltibia 48.5602 0 0
lfoot -15.15 12.1469 0
ltoes -5.03167 0 0
rfemur -6.7175 6.11545 29.9749
rtibia 23.1863 0 0
rfoot -17.0186 3.89192 0
rtoes -13.4009 0 0
lowerback -6.23667 0.973926 0.79528
upperback -0.496886 1.12774 3.04616
thorax 2.95597 0.558472 2.82483
lowerneck -19.8563 -6.2238 -12.6379
upperneck 21.4369 -8.04876 12.6303
head 11.3123 -3.22437 5.48988
lclavicle 1.97583e-015 3.42425e-015 0
lhumerus -48.1445 -16.1395 97.3612
lradius 28.0328 0 0
lwrist 11.4277 0 0
lhand -13.8015 -23.1239 0
lfingers 7.12502 0 0
lthumb 12.3201 6.48601 0
rclavicle 1.97583e-015 3.42425e-015 0
rhumerus -31.7968 17.6898 -84.1379
rradius 43.427 0 0
rwrist -22.2131 0 0
rhand -31.0913 -23.2573 0
rfingers 7.12502 0 0
rthumb -4.3713 -53.1919 0
380
root 9.4136 17.0279 17.1652 6.28 2.51855 -4.15439
lfemur -37.3838 3.46891 -15.8108
ltibia 47.4601 0 0
lfoot -15.187 12.2021 0
ltoes -5.33021 0 0
rfemur -5.7462 6.10694 30.1069
rtibia 22.2588 0 0
rfoot -16.6485 4.0142 0
rtoes -13.2757 0 0
lowerback -6.31497 1.06555 0.897757
upperback -0.46644 1.23567 3.08913
thorax 3.03007 0.613157 2.82703
lowerneck -19.8346 -6.22004 -12.6682
upperneck 21.4281 -8.03999 12.648
head 11.3058 -3.22162 5.50331
lclavicle 2.45836e-015 2.20589e-015 0
lhumerus -48.3572 -15.8648 97.3216
lradius 27.9956 0 0
lwrist 11.3 0 0
lhand -13.6639 -23.2496 0
lfingers 7.12502 0 0
lthumb 12.4527 6.3515 0
rclavicle 2.45836e-015 2.20589e-015 0
rhumerus -31.6054 17.5849 -84.1657
rradius 43.2696 0 0
rwrist -22.0399 0 0
rhand -31.0581 -23.1686 0
rfingers 7.12502 0 0
rthumb -4.33919 -53.1038 0
381
root 9.42476 17.0217 17.3014 6.29078 2.34662 -4.30153
lfemur -37.6222 3.17914 -15.514
ltibia 46.3599 0 0
lfoot -15.224 12.2573 0
ltoes -5.62875 0 0
rfemur -4.7749 6.09842 30.2389
rtibia 21.3314 0 0
rfoot -16.2784 4.13649 0
rtoes -13.1506 0 0
lowerback -6.39328 1.15718 1.00023
upperback -0.435995 1.34359 3.13209
thorax 3.10418 0.667842 2.82923
lowerneck -19.813 -6.21628 -12.6985
upperneck 21.4192 -8.03121 12.6657
head 11.2992 -3.21887 5.51674
lclavicle 2.9409e-015 9.87535e-016 0
lhumerus -48.57 -15.5901 97.2819
lradius 27.9584 0 0
lwrist 11.1722 0 0
lhand -13.5263 -23.3752 0
lfingers 7.12502 0 0
lthumb 12.5853 6.21699 0
rclavicle 2.9409e-015 9.87535e-016 0
rhumerus -31.414 17.4801 -84.1934
rradius 43.1122 0 0
rwrist -21.8667 0 0
rhand -31.0248 -23.0799 0
rfingers 7.12502 0 0
rthumb -4.30709 -53.0157 0
382
root 9.43591 17.0156 17.4377 6.30155 2.17469 -4.44867
lfemur -37.8606 2.88937 -15.2172
ltibia 45.2598 0 0
lfoot -15.261 12.3126 0
ltoes -5.92728 0 0
rfemur -3.8036 6.0899 30.3709
rtibia 20.4039 0 0
rfoot -15.9083 4.25877 0
rtoes -13.0254 0 0
lowerback -6.47158 1.2488 1.10271
upperback -0.405549 1.45152 3.17506
thorax 3.17828 0.722527 2.83143
lowerneck -19.7914 -6.21252 -12.7288
upperneck 21.4104 -8.02244 12.6834
head 11.2927 -3.21612 5.53017
lclavicle 3.42343e-015 -2.30823e-016 0
lhumerus -48.7828 -15.3154 97.2423
lradius 27.9212 0 0
lwrist 11.0445 0 0
lhand -13.3887 -23.5008 0
lfingers 7.12502 0 0
lthumb 12.7179 6.08248 0
rclavicle 3.42343e-015 -2.30823e-016 0
rhumerus -31.2225 17.3752 -84.2212
rradius 42.9548 0 0
rwrist -21.6935 0 0
rhand -30.9916 -22.9912 0
rfingers 7.12502 0 0
rthumb -4.27499 -52.9276 0
383
root 9.44706 17.0094 17.574 6.31233 2.00276 -4.5958
lfemur -38.099 2.5996 -14.9205
ltibia 44.1597 0 0
lfoot -15.298 12.3678 0
ltoes -6.22582 0 0
rfemur -2.8323 6.08139 30.5029
rtibia 19.4765 0 0
rfoot -15.5382 4.38106 0
rtoes -12.9003 0 0
lowerback -6.54988 1.34042 1.20519
upperback -0.375103 1.55944 3.21803
thorax 3.25238 0.777212 2.83364
lowerneck -19.7697 -6.20875 -12.7592
upperneck 21.4015 -8.01366 12.7012
head 11.2861 -3.21336 5.5436
lclavicle 3.90597e-015 -1.44918e-015 0
lhumerus -48.9955 -15.0406 97.2026
lradius 27.884 0 0
lwrist 10.9167 0 0
lhand -13.2511 -23.6265 0
lfingers 7.12502 0 0
lthumb 12.8505 5.94798 0
rclavicle 3.90597e-015 -1.44918e-015 0
rhumerus -31.0311 17.2704 -84.2489
rradius 42.7974 0 0
rwrist -21.5204 0 0
rhand -30.9583 -22.9025 0
rfingers 7.12502 0 0
rthumb -4.24289 -52.8395 0
